<svg width="12" height="16" viewBox="0 0 12 16" fill="none" xmlns="http://www.w3.org/2000/svg">
<path fill-rule="evenodd" clip-rule="evenodd" d="M5.99987 2.25C4.4995 2.25 3.2832 3.46629 3.2832 4.96667C3.2832 6.46704 4.4995 7.68333 5.99987 7.68333C7.50024 7.68333 8.71654 6.46704 8.71654 4.96667C8.71654 3.46629 7.50024 2.25 5.99987 2.25ZM1.7832 4.96667C1.7832 2.63787 3.67107 0.75 5.99987 0.75C8.32867 0.75 10.2165 2.63787 10.2165 4.96667C10.2165 7.03945 8.72093 8.76293 6.75 9.11681V12C6.75 12.4142 6.41421 12.75 6 12.75C5.58579 12.75 5.25 12.4142 5.25 12V9.11686C3.27894 8.76308 1.7832 7.03955 1.7832 4.96667ZM1.5 13.75C1.08579 13.75 0.75 14.0858 0.75 14.5C0.75 14.9142 1.08579 15.25 1.5 15.25H10.5C10.9142 15.25 11.25 14.9142 11.25 14.5C11.25 14.0858 10.9142 13.75 10.5 13.75H1.5Z" fill="#A8A9AE"/>
</svg>
